<svg width="191" height="24" viewBox="0 0 191 24" fill="none" xmlns="http://www.w3.org/2000/svg">
<g clip-path="url(#clip0_4319_4116)">
<path d="M0.449759 3C0.449759 1.48098 1.68117 0.249563 3.2002 0.249563H33.2002C34.7192 0.249563 35.9506 1.48098 35.9506 3V21C35.9506 22.519 34.7192 23.7504 33.2002 23.7504H3.20019C1.68117 23.7504 0.449759 22.519 0.449759 21V3Z" fill="white" stroke="#E0E0E0" stroke-width="0.499127"/>
<path d="M31.182 7.52612H29.296C28.7259 7.52612 28.2873 7.70156 28.0241 8.27174L24.4276 16.4735H26.9715C26.9715 16.4735 27.4101 15.377 27.4978 15.1138C27.7609 15.1138 30.2609 15.1138 30.6118 15.1138C30.6995 15.4209 30.9188 16.4296 30.9188 16.4296H33.1995L31.182 7.52612ZM28.1995 13.2717C28.4188 12.7454 29.1645 10.7717 29.1645 10.7717C29.1645 10.8156 29.3838 10.2454 29.4715 9.9384L29.6469 10.7279C29.6469 10.7279 30.1294 12.877 30.2171 13.3156H28.1995V13.2717Z" fill="#3362AB"/>
<path d="M24.6034 13.5346C24.6034 15.3767 22.9368 16.6048 20.3491 16.6048C19.2526 16.6048 18.1999 16.3855 17.6298 16.1224L17.9806 14.1048L18.2877 14.2364C19.0771 14.5873 19.6034 14.7188 20.5684 14.7188C21.2701 14.7188 22.0157 14.4557 22.0157 13.8417C22.0157 13.4469 21.7087 13.1838 20.7438 12.7452C19.8227 12.3066 18.5947 11.6048 18.5947 10.3329C18.5947 8.5785 20.3052 7.39429 22.7175 7.39429C23.6385 7.39429 24.428 7.56973 24.9105 7.78902L24.5596 9.71885L24.3841 9.54341C23.9455 9.36797 23.3754 9.19253 22.542 9.19253C21.621 9.23639 21.1824 9.63113 21.1824 9.98201C21.1824 10.3767 21.7087 10.6838 22.542 11.0785C23.9455 11.7364 24.6034 12.482 24.6034 13.5346Z" fill="#3362AB"/>
<path d="M3.19983 7.61318L3.24369 7.43774H7.01562C7.54193 7.43774 7.93667 7.61318 8.06825 8.18336L8.90158 12.1307C8.06825 10.0255 6.13843 8.31494 3.19983 7.61318Z" fill="#F9B50B"/>
<path d="M14.2089 7.52604L10.3931 16.4295H7.80541L5.61243 8.97341C7.19137 9.98218 8.50716 11.5611 8.98962 12.6576L9.25278 13.5787L11.6212 7.48218H14.2089V7.52604Z" fill="#3362AB"/>
<path d="M15.2173 7.48218H17.6296L16.0945 16.4295H13.6823L15.2173 7.48218Z" fill="#3362AB"/>
</g>
<g clip-path="url(#clip1_4319_4116)">
<path d="M39.4496 3C39.4496 1.48098 40.681 0.249563 42.2001 0.249563H72.2001C73.7191 0.249563 74.9505 1.48098 74.9505 3V21C74.9505 22.519 73.7191 23.7504 72.2001 23.7504H42.2001C40.681 23.7504 39.4496 22.519 39.4496 21V3Z" fill="white" stroke="#E0E0E0" stroke-width="0.499127"/>
<path d="M60.957 4.89524L53.2102 4.92188L53.445 19.1042L61.1917 19.0776L60.957 4.89524Z" fill="#FF5F00"/>
<path d="M53.7199 12.0415C53.672 9.15694 54.9642 6.59387 56.9882 4.93134C55.4604 3.73251 53.5451 3.01161 51.4689 3.01872C46.5502 3.03557 42.6379 7.08761 42.7209 12.0792C42.8038 17.0708 46.8503 21.0956 51.769 21.0787C53.8452 21.0716 55.7364 20.3377 57.2241 19.1285C55.1455 17.5051 53.7678 14.9261 53.7199 12.0415Z" fill="#EB001B"/>
<path d="M71.6811 11.9207C71.764 16.9122 67.8517 20.9643 62.933 20.9811C60.8568 20.9882 58.9415 20.2674 57.4138 19.0685C59.4625 17.4059 60.73 14.8429 60.682 11.9583C60.6341 9.07376 59.2569 6.51983 57.1778 4.87136C58.6656 3.6622 60.5567 2.92826 62.6329 2.92115C67.5516 2.9043 71.5985 6.95417 71.6811 11.9207Z" fill="#F79E1B"/>
</g>
<rect x="78.4498" y="0.249563" width="34.3009" height="23.5009" rx="2.7452" fill="white" stroke="#E0E0E0" stroke-width="0.499127"/>
<path fill-rule="evenodd" clip-rule="evenodd" d="M84.8431 8.5L81.6802 15.7467H85.4666L85.9361 14.5913H87.009L87.4784 15.7467H91.6463V14.8649L92.0177 15.7467H94.1736L94.545 14.8462V15.7467H103.213L104.267 14.6213L105.254 15.7467L109.706 15.7561L106.533 12.1436L109.706 8.5H105.323L104.297 9.60463L103.341 8.5H93.9115L93.1017 10.3704L92.273 8.5H88.4944V9.35186L88.0741 8.5H84.8431ZM97.787 9.5291H102.765L104.287 11.2317L105.858 9.5291H107.381L105.068 12.1426L107.381 14.726H105.789L104.267 13.0037L102.687 14.726H97.787V9.5291ZM99.0162 11.555V10.6058V10.6049H102.122L103.477 12.123L102.062 13.6494H99.0162V12.6131H101.732V11.555H99.0162ZM85.5758 9.5291H87.4215L89.5195 14.4432V9.5291H91.5414L93.1618 13.0525L94.6553 9.5291H96.6671V14.7291H95.4429L95.4329 10.6544L93.6483 14.7291H92.5532L90.7586 10.6544V14.7291H88.2403L87.7628 13.5633H85.1835L84.707 14.7281H83.3578L85.5758 9.5291ZM85.6239 12.4856L86.4737 10.4089L87.3225 12.4856H85.6239Z" fill="#1F72CD"/>
<g clip-path="url(#clip2_4319_4116)">
<path d="M116.249 3C116.249 1.48098 117.481 0.249563 119 0.249563H149C150.519 0.249563 151.75 1.48098 151.75 3V21C151.75 22.519 150.519 23.7504 149 23.7504H119C117.481 23.7504 116.249 22.519 116.249 21V3Z" fill="white" stroke="#E0E0E0" stroke-width="0.499127"/>
<path d="M145.337 12.0783C145.337 6.70929 140.856 2.99838 135.946 3H131.721C126.752 2.99822 122.662 6.71042 122.662 12.0783C122.662 16.989 126.752 21.0237 131.721 20.9999H135.946C140.856 21.0235 145.337 16.9877 145.337 12.0783Z" fill="#0079BE"/>
<path d="M131.747 3.75952C127.207 3.76093 123.528 7.4485 123.526 11.9996C123.528 16.55 127.207 20.237 131.747 20.2386C136.288 20.2373 139.968 16.55 139.969 11.9996C139.968 7.44839 136.288 3.76114 131.747 3.75952Z" fill="white"/>
<path d="M126.551 11.9792C126.555 9.75525 127.941 7.85881 129.896 7.10522V16.8521C127.941 16.0989 126.555 14.2034 126.551 11.9792V11.9792ZM133.626 16.8545V7.10549C135.581 7.8573 136.969 9.75482 136.973 11.9798C136.969 14.2054 135.581 16.1016 133.626 16.8548V16.8545Z" fill="#0079BE"/>
</g>
<g clip-path="url(#clip3_4319_4116)">
<path d="M155.25 3C155.25 1.48098 156.481 0.249563 158 0.249563H188C189.519 0.249563 190.751 1.48098 190.751 3V21C190.751 22.519 189.519 23.7504 188 23.7504H158C156.481 23.7504 155.25 22.519 155.25 21V3Z" fill="white" stroke="#E0E0E0" stroke-width="0.499127"/>
<path d="M172.537 11.5449V13.0283H165.715V11.5449H172.537ZM169.926 8.75586V16.002H168.333V8.75586H169.926ZM180.652 13.4521V14.7646H173.474L173.419 13.7734L177.712 7.04688H179.031L177.603 9.49414L175.135 13.4521H180.652ZM179.407 7.04688V17H177.76V7.04688H179.407Z" fill="#333333"/>
</g>
<defs>
<clipPath id="clip0_4319_4116">
<rect width="36" height="24" fill="white" transform="translate(0.200195)"/>
</clipPath>
<clipPath id="clip1_4319_4116">
<rect width="36" height="24" fill="white" transform="translate(39.2002)"/>
</clipPath>
<clipPath id="clip2_4319_4116">
<rect width="36" height="24" fill="white" transform="translate(116)"/>
</clipPath>
<clipPath id="clip3_4319_4116">
<rect width="36" height="24" fill="white" transform="translate(155)"/>
</clipPath>
</defs>
</svg>
